<?xml version="1.0" encoding="UTF-8"?>
<svg width="32px" height="32px" viewBox="0 0 32 32" version="1.1" xmlns="http://www.w3.org/2000/svg">
  <title>BPM Manager</title>
  <g stroke="none" stroke-width="1" fill="none" fill-rule="evenodd">
    <circle fill="#2196F3" cx="16" cy="16" r="16"></circle>
    <!-- Nota musical -->
    <g transform="translate(8, 6)" fill="#FFFFFF">
      <path d="M12,0 C12.5522847,0 13,0.44771525 13,1 L13,14 C13,15.6568542 11.6568542,17 10,17 C8.34314575,17 7,15.6568542 7,14 C7,12.3431458 8.34314575,11 10,11 C10.3506354,11 10.6872211,11.0608212 11,11.1707878 L11,4 L4,6 L4,16 C4,17.6568542 2.65685425,19 1,19 C-0.65685425,19 -2,17.6568542 -2,16 C-2,14.3431458 -0.65685425,13 1,13 C1.35063542,13 1.68722107,13.0608212 2,13.1707878 L2,3 C2,2.62729957 2.19432123,2.28311277 2.50957504,2.10557281 L11.5095751,0.10557281 C11.6712766,0.0360972296 11.8452481,0 12,0 Z"></path>
    </g>
    <!-- Líneas de pulso -->
    <path d="M4,16 L6,16 L7,14 L8,18 L9,12 L10,20 L11,14 L12,16 L14,16" stroke="#FFFFFF" stroke-width="1.5" stroke-linecap="round" stroke-linejoin="round"></path>
  </g>
</svg>
